<svg id="svg" version="1.1" xmlns="http://www.w3.org/2000/svg" xmlns:xlink="http://www.w3.org/1999/xlink" width="400" height="355.7840616966581" viewBox="0, 0, 400,355.7840616966581"><g id="svgg"><path id="path0" d="M243.194 87.142 C 243.077 87.730,242.758 88.296,242.487 88.400 C 242.215 88.504,241.993 88.883,241.993 89.242 C 241.993 89.600,241.830 90.056,241.631 90.255 C 241.117 90.769,235.943 101.110,235.943 101.623 C 235.943 101.857,235.703 102.247,235.409 102.491 C 235.116 102.735,234.875 103.215,234.875 103.559 C 234.875 103.902,234.635 104.383,234.342 104.626 C 234.048 104.870,233.808 105.350,233.808 105.694 C 233.808 106.037,233.568 106.518,233.274 106.762 C 232.980 107.005,232.740 107.481,232.740 107.820 C 232.740 108.158,232.340 109.188,231.851 110.108 C 230.696 112.280,230.722 112.456,232.206 112.456 C 232.891 112.456,233.452 112.295,233.452 112.100 C 233.452 111.904,234.233 111.744,235.188 111.744 C 236.297 111.744,237.084 111.551,237.367 111.210 C 237.647 110.872,238.432 110.676,239.502 110.676 C 240.572 110.676,241.357 110.480,241.637 110.142 C 241.905 109.819,242.684 109.609,243.612 109.609 C 244.500 109.609,245.369 109.384,245.679 109.075 C 246.313 108.440,248.085 108.370,248.672 108.956 C 248.988 109.273,249.145 109.220,249.332 108.734 C 249.491 108.319,249.371 107.982,248.987 107.767 C 248.623 107.563,248.399 106.985,248.399 106.248 C 248.399 105.519,248.192 104.979,247.865 104.854 C 247.571 104.741,247.331 104.474,247.331 104.261 C 247.331 104.047,247.474 103.961,247.650 104.069 C 248.203 104.411,248.381 103.275,247.844 102.829 C 247.527 102.567,247.331 101.747,247.331 100.686 C 247.331 99.474,247.162 98.873,246.756 98.646 C 246.353 98.420,246.176 97.803,246.164 96.582 C 246.153 95.565,245.949 94.692,245.672 94.484 C 245.404 94.283,245.164 93.316,245.120 92.260 C 245.067 91.018,244.888 90.391,244.585 90.391 C 244.269 90.391,244.128 89.793,244.128 88.455 C 244.128 86.311,243.529 85.468,243.194 87.142 M249.030 109.807 C 248.659 110.179,249.197 111.409,249.893 111.782 C 250.651 112.188,250.243 110.978,249.458 110.493 C 249.261 110.371,249.191 110.122,249.303 109.940 C 249.527 109.578,249.347 109.490,249.030 109.807 M148.754 175.801 C 148.754 176.247,149.132 176.247,149.822 175.801 C 150.254 175.522,150.203 175.455,149.555 175.450 C 149.115 175.447,148.754 175.605,148.754 175.801 M149.822 176.530 C 149.822 176.758,149.593 176.856,149.312 176.749 C 148.965 176.615,148.729 176.887,148.572 177.600 C 148.446 178.176,148.185 178.648,147.993 178.648 C 147.802 178.648,147.739 178.800,147.854 178.986 C 147.969 179.172,147.738 179.498,147.341 179.710 C 146.944 179.922,146.619 180.342,146.619 180.643 C 146.619 180.944,146.379 181.430,146.085 181.723 C 145.792 182.017,145.552 182.549,145.552 182.905 C 145.552 183.262,145.311 183.646,145.018 183.759 C 144.724 183.871,144.484 184.355,144.484 184.835 C 144.484 185.314,144.299 185.767,144.074 185.843 C 143.848 185.918,143.640 186.301,143.611 186.694 C 143.582 187.087,143.046 188.168,142.420 189.096 C 141.794 190.024,141.281 191.015,141.281 191.299 C 141.281 191.583,141.121 191.815,140.925 191.815 C 140.730 191.815,140.569 192.278,140.569 192.844 C 140.569 193.431,140.340 193.962,140.036 194.079 C 139.742 194.192,139.502 194.689,139.502 195.185 C 139.502 195.730,139.300 196.085,138.991 196.085 C 138.674 196.085,138.437 196.526,138.368 197.242 C 138.301 197.934,138.078 198.363,137.811 198.310 C 137.552 198.258,137.367 198.585,137.367 199.093 C 137.367 199.572,137.102 200.112,136.779 200.293 C 136.398 200.506,136.262 200.889,136.391 201.383 C 136.528 201.906,136.379 202.258,135.915 202.506 C 135.543 202.705,135.256 202.984,135.277 203.125 C 135.388 203.861,135.173 204.270,134.675 204.270 C 134.336 204.270,134.161 204.521,134.228 204.913 C 134.288 205.266,134.059 205.978,133.720 206.496 C 133.381 207.013,133.200 207.685,133.316 207.988 C 133.448 208.331,133.332 208.541,133.013 208.541 C 132.730 208.541,132.312 208.951,132.083 209.453 C 131.842 209.981,131.818 210.272,132.026 210.144 C 132.223 210.022,132.384 210.092,132.384 210.299 C 132.384 210.507,132.144 210.676,131.851 210.676 C 131.551 210.676,131.317 210.994,131.317 211.399 C 131.317 211.797,131.077 212.214,130.783 212.327 C 130.485 212.441,130.249 212.970,130.249 213.523 C 130.249 214.068,130.047 214.592,129.800 214.687 C 129.553 214.782,128.983 215.596,128.534 216.496 C 128.084 217.397,127.565 218.226,127.381 218.340 C 127.197 218.454,127.046 218.858,127.046 219.238 C 127.046 219.618,126.846 219.931,126.601 219.934 C 126.300 219.938,126.326 220.047,126.680 220.271 C 127.129 220.555,127.116 220.636,126.591 220.837 C 126.254 220.967,125.979 221.296,125.979 221.568 C 125.979 221.841,125.822 222.064,125.630 222.064 C 125.249 222.064,124.708 223.746,124.854 224.472 C 124.904 224.720,124.737 224.880,124.483 224.828 C 124.210 224.772,124.032 225.054,124.048 225.516 C 124.062 225.947,123.934 226.212,123.762 226.106 C 123.591 226.000,123.263 226.409,123.035 227.014 C 122.807 227.619,122.495 228.114,122.342 228.114 C 122.189 228.114,122.064 228.594,122.064 229.181 C 122.064 229.788,121.891 230.211,121.664 230.160 C 121.444 230.111,121.183 230.294,121.084 230.566 C 120.974 230.868,121.060 230.964,121.306 230.811 C 121.527 230.675,121.708 230.719,121.708 230.910 C 121.708 231.101,121.539 231.314,121.333 231.382 C 121.127 231.451,120.918 231.780,120.869 232.114 C 120.820 232.447,120.643 232.844,120.475 232.997 C 120.308 233.149,120.286 233.074,120.427 232.829 C 120.567 232.585,120.513 232.384,120.306 232.384 C 120.091 232.384,119.929 233.149,119.929 234.164 L 119.929 235.943 143.950 235.943 C 165.065 235.943,167.972 235.878,167.972 235.409 C 167.972 235.116,168.212 234.875,168.505 234.875 C 168.861 234.875,169.039 234.520,169.039 233.808 C 169.039 233.096,169.217 232.740,169.573 232.740 C 169.929 232.740,170.107 232.384,170.107 231.673 C 170.107 231.008,170.275 230.639,170.552 230.694 C 170.802 230.744,171.046 230.355,171.109 229.804 C 171.171 229.266,171.381 228.826,171.575 228.826 C 171.769 228.826,171.829 228.665,171.708 228.470 C 171.587 228.274,171.658 228.114,171.865 228.114 C 172.072 228.114,172.242 227.794,172.242 227.402 C 172.242 227.007,172.479 226.690,172.776 226.690 C 173.101 226.690,173.310 226.359,173.310 225.844 C 173.310 225.379,173.557 224.793,173.860 224.542 C 174.162 224.291,174.336 223.894,174.247 223.661 C 174.157 223.427,174.390 222.974,174.764 222.654 C 175.139 222.333,175.445 221.769,175.445 221.399 C 175.445 221.030,175.689 220.525,175.987 220.278 C 176.299 220.018,176.440 219.549,176.319 219.167 C 176.175 218.714,176.285 218.505,176.666 218.505 C 177.049 218.505,177.224 218.170,177.224 217.438 C 177.224 216.726,177.402 216.370,177.758 216.370 C 178.084 216.370,178.292 216.038,178.292 215.519 C 178.292 215.050,178.532 214.575,178.826 214.462 C 179.143 214.340,179.359 213.805,179.359 213.140 C 179.359 212.294,179.489 212.073,179.893 212.228 C 180.294 212.382,180.427 212.170,180.427 211.377 C 180.427 210.675,180.606 210.320,180.961 210.320 C 181.335 210.320,181.495 209.942,181.495 209.054 C 181.495 208.345,181.643 207.879,181.833 207.996 C 182.478 208.395,182.969 206.863,182.384 206.278 C 182.090 205.985,181.851 205.573,181.851 205.363 C 181.851 205.154,181.693 204.982,181.500 204.982 C 181.307 204.982,179.882 204.061,178.333 202.936 C 176.785 201.810,175.162 200.649,174.726 200.356 C 174.291 200.062,173.725 199.622,173.469 199.377 C 173.214 199.133,172.869 198.932,172.703 198.932 C 172.537 198.932,171.875 198.452,171.232 197.865 C 170.589 197.278,169.980 196.797,169.880 196.797 C 169.779 196.797,168.760 196.077,167.616 195.196 C 166.471 194.315,165.402 193.592,165.241 193.589 C 165.079 193.585,164.386 193.107,163.701 192.525 C 163.016 191.943,162.262 191.305,162.026 191.107 C 161.789 190.909,161.440 190.747,161.249 190.747 C 160.618 190.747,159.503 188.823,159.806 188.256 C 159.963 187.963,160.184 187.482,160.298 187.189 C 160.411 186.895,160.797 186.174,161.154 185.587 C 161.511 185.000,161.913 184.079,162.047 183.541 C 162.181 183.003,162.448 182.562,162.640 182.562 C 162.832 182.562,162.989 182.082,162.989 181.495 C 162.989 180.675,162.829 180.427,162.299 180.427 C 161.919 180.427,161.509 180.267,161.388 180.071 C 161.267 179.875,160.617 179.715,159.943 179.715 C 159.270 179.715,158.719 179.558,158.719 179.366 C 158.719 179.174,158.325 178.918,157.844 178.797 C 157.362 178.677,156.782 178.353,156.555 178.079 C 156.327 177.805,155.619 177.580,154.982 177.580 C 154.345 177.580,153.624 177.340,153.381 177.046 C 153.137 176.753,152.637 176.512,152.270 176.512 C 151.902 176.512,151.601 176.753,151.601 177.046 C 151.601 177.340,151.361 177.580,151.068 177.580 C 150.774 177.580,150.534 177.349,150.534 177.067 C 150.534 176.785,150.374 176.455,150.178 176.335 C 149.982 176.214,149.822 176.301,149.822 176.530 M246.691 212.170 C 246.456 212.405,246.263 212.801,246.263 213.048 C 246.263 213.296,245.783 213.990,245.196 214.591 C 244.609 215.191,244.128 215.908,244.128 216.183 C 244.128 216.459,243.968 216.783,243.772 216.904 C 243.577 217.025,243.416 217.405,243.416 217.748 C 243.416 218.091,242.936 218.832,242.349 219.395 C 241.762 219.958,241.281 220.678,241.281 220.996 C 241.281 221.315,240.801 222.035,240.214 222.598 C 239.626 223.160,239.146 223.891,239.146 224.222 C 239.146 224.553,238.906 225.023,238.612 225.267 C 238.319 225.511,238.078 225.981,238.078 226.312 C 238.078 226.642,237.598 227.373,237.011 227.936 C 236.423 228.499,235.943 229.229,235.943 229.560 C 235.943 229.891,235.703 230.361,235.409 230.605 C 235.116 230.849,234.875 231.332,234.875 231.679 C 234.875 232.027,234.329 232.790,233.662 233.376 C 232.352 234.526,232.502 235.231,234.057 235.231 C 234.507 235.231,234.875 235.365,234.875 235.528 C 234.875 235.691,235.116 235.824,235.409 235.824 C 236.050 235.824,236.135 235.241,235.498 235.209 C 235.254 235.196,235.454 235.023,235.943 234.822 C 236.518 234.587,243.976 234.476,257.028 234.507 C 268.136 234.534,277.224 234.456,277.224 234.334 C 277.224 233.985,276.418 233.263,273.793 231.263 C 272.451 230.240,271.299 229.273,271.234 229.114 C 271.168 228.955,270.970 228.826,270.793 228.826 C 270.488 228.826,269.532 228.124,268.491 227.135 C 268.233 226.891,267.851 226.690,267.641 226.690 C 267.431 226.690,267.260 226.561,267.260 226.403 C 267.260 226.245,266.259 225.380,265.036 224.480 C 263.812 223.580,262.427 222.508,261.956 222.098 C 261.486 221.688,261.005 221.350,260.889 221.347 C 260.772 221.344,260.116 220.847,259.431 220.243 C 258.746 219.639,257.184 218.409,255.961 217.511 C 254.738 216.612,253.737 215.748,253.737 215.590 C 253.737 215.432,253.496 215.302,253.203 215.302 C 252.909 215.302,252.669 215.145,252.669 214.953 C 252.669 214.761,252.269 214.504,251.779 214.381 C 251.290 214.258,250.890 214.028,250.890 213.869 C 250.890 213.002,247.309 211.553,246.691 212.170 " stroke="none" fill="#ac3434" fill-rule="evenodd"></path><path id="path1" d="M194.079 86.556 C 194.187 86.892,194.009 87.435,193.683 87.761 C 193.356 88.088,193.040 88.680,192.979 89.078 C 192.918 89.476,192.678 90.031,192.446 90.310 C 192.214 90.590,191.986 91.079,191.939 91.396 C 191.893 91.714,191.606 92.156,191.301 92.378 C 190.996 92.601,190.747 93.126,190.747 93.545 C 190.747 93.984,190.522 94.306,190.214 94.306 C 189.889 94.306,189.680 94.637,189.680 95.152 C 189.680 95.618,189.444 96.194,189.156 96.433 C 188.868 96.672,188.668 97.212,188.711 97.633 C 188.755 98.054,188.624 98.370,188.421 98.335 C 188.218 98.300,188.018 98.671,187.978 99.159 C 187.938 99.647,187.663 100.288,187.369 100.583 C 187.074 100.877,186.833 101.427,186.833 101.805 C 186.833 102.182,186.593 102.491,186.299 102.491 C 185.943 102.491,185.765 102.847,185.765 103.559 C 185.765 104.270,185.587 104.626,185.231 104.626 C 184.871 104.626,184.698 104.986,184.698 105.732 C 184.698 106.569,184.568 106.788,184.164 106.633 C 183.763 106.479,183.630 106.692,183.630 107.484 C 183.630 108.166,183.448 108.541,183.119 108.541 C 182.802 108.541,182.565 108.981,182.496 109.698 C 182.429 110.390,182.206 110.818,181.940 110.765 C 181.662 110.710,181.495 111.082,181.495 111.755 C 181.495 112.386,181.273 112.919,180.961 113.039 C 180.667 113.151,180.427 113.529,180.427 113.879 C 180.427 114.229,180.176 114.611,179.869 114.729 C 179.506 114.868,179.387 115.184,179.528 115.630 C 179.661 116.049,179.544 116.432,179.228 116.611 C 178.943 116.772,178.656 117.384,178.590 117.972 C 178.520 118.590,178.283 119.002,178.025 118.950 C 177.748 118.895,177.580 119.265,177.580 119.929 C 177.580 120.641,177.402 120.996,177.046 120.996 C 176.690 120.996,176.512 121.352,176.512 122.064 C 176.512 122.776,176.335 123.132,175.979 123.132 C 175.624 123.132,175.445 123.486,175.445 124.188 C 175.445 125.027,175.323 125.198,174.853 125.017 C 174.476 124.873,174.347 124.930,174.499 125.177 C 174.834 125.718,174.102 127.494,173.657 127.219 C 173.456 127.095,173.315 127.125,173.343 127.287 C 173.513 128.267,173.239 129.181,172.776 129.181 C 172.482 129.181,172.242 129.490,172.242 129.868 C 172.242 130.245,172.012 130.784,171.731 131.065 C 171.335 131.461,171.315 131.679,171.642 132.032 C 171.874 132.283,171.896 132.396,171.690 132.282 C 171.485 132.168,171.140 132.358,170.924 132.704 C 170.473 133.426,171.491 133.669,171.970 132.953 C 172.149 132.685,172.233 132.705,172.237 133.016 C 172.240 133.265,171.875 133.609,171.427 133.780 C 170.300 134.208,169.694 135.026,169.971 135.747 C 170.162 136.244,170.296 136.161,170.721 135.284 C 171.355 133.974,171.514 133.920,174.288 134.090 C 175.901 134.189,176.512 134.365,176.512 134.729 C 176.512 135.028,176.873 135.231,177.402 135.231 C 177.956 135.231,178.292 135.433,178.292 135.765 C 178.292 136.161,178.707 136.299,179.893 136.299 C 181.079 136.299,181.495 136.437,181.495 136.833 C 181.495 137.228,181.910 137.367,183.096 137.367 C 184.282 137.367,184.698 137.505,184.698 137.900 C 184.698 138.233,185.034 138.434,185.587 138.434 C 186.141 138.434,186.477 138.636,186.477 138.968 C 186.477 139.363,186.892 139.502,188.078 139.502 C 189.265 139.502,189.680 139.640,189.680 140.036 C 189.680 140.431,190.095 140.569,191.281 140.569 C 192.467 140.569,192.883 140.708,192.883 141.103 C 192.883 141.489,193.278 141.637,194.306 141.637 C 195.089 141.637,195.730 141.797,195.730 141.993 C 195.730 142.189,196.210 142.349,196.797 142.349 C 197.509 142.349,197.865 142.527,197.865 142.883 C 197.865 143.278,198.280 143.416,199.466 143.416 C 200.652 143.416,201.068 143.555,201.068 143.950 C 201.068 144.346,201.483 144.484,202.669 144.484 C 203.855 144.484,204.270 144.622,204.270 145.018 C 204.270 145.350,204.607 145.552,205.160 145.552 C 205.714 145.552,206.050 145.753,206.050 146.085 C 206.050 146.481,206.465 146.619,207.651 146.619 C 208.837 146.619,209.253 146.758,209.253 147.153 C 209.253 148.438,211.166 147.611,211.518 146.174 C 211.650 145.636,211.914 145.196,212.106 145.196 C 212.298 145.196,212.456 144.885,212.456 144.505 C 212.456 144.125,212.626 143.709,212.833 143.581 C 213.041 143.452,213.364 143.002,213.550 142.581 C 213.737 142.160,214.206 141.335,214.592 140.747 C 214.979 140.160,215.376 139.480,215.477 139.235 C 215.577 138.990,215.740 138.590,215.839 138.345 C 215.939 138.101,216.355 137.340,216.764 136.655 C 217.173 135.970,217.832 134.769,218.229 133.986 C 218.626 133.203,219.082 132.322,219.244 132.028 C 219.406 131.735,219.877 130.774,220.292 129.893 C 220.707 129.012,221.197 128.052,221.380 127.758 C 221.563 127.464,221.803 126.984,221.914 126.690 C 222.025 126.397,222.293 125.836,222.509 125.445 C 222.725 125.053,226.898 116.806,231.783 107.117 C 236.667 97.429,240.963 88.909,241.328 88.184 C 241.694 87.460,241.993 86.699,241.993 86.494 C 241.993 85.953,195.151 85.974,194.816 86.515 C 194.646 86.790,194.469 86.763,194.228 86.426 C 193.964 86.056,193.929 86.086,194.079 86.556 M168.656 136.744 C 168.641 136.793,168.573 137.127,168.505 137.487 C 168.437 137.846,168.104 138.447,167.765 138.821 C 167.287 139.350,167.261 139.501,167.649 139.498 C 167.924 139.496,168.418 138.856,168.746 138.075 C 169.074 137.294,169.194 136.655,169.013 136.655 C 168.832 136.655,168.671 136.695,168.656 136.744 M166.429 140.807 C 165.972 141.264,166.191 141.971,166.726 141.766 C 167.020 141.653,167.260 141.338,167.260 141.065 C 167.260 140.542,166.828 140.408,166.429 140.807 M210.415 150.849 C 210.446 151.263,210.697 151.601,210.973 151.601 C 211.396 151.601,211.399 151.503,210.998 150.979 C 210.736 150.636,210.485 150.298,210.440 150.227 C 210.395 150.156,210.384 150.436,210.415 150.849 M177.849 157.562 C 177.545 157.905,176.693 159.306,175.955 160.676 C 175.218 162.046,174.094 164.128,173.459 165.302 C 172.823 166.477,171.835 168.319,171.263 169.395 C 170.269 171.267,169.100 173.418,166.863 177.491 C 166.298 178.519,165.356 180.240,164.769 181.317 C 161.917 186.544,161.429 187.415,160.991 188.053 C 160.539 188.712,163.423 191.193,168.674 194.662 C 169.119 194.956,169.670 195.356,169.898 195.552 C 170.127 195.747,170.575 196.068,170.892 196.263 C 171.812 196.830,177.741 201.079,180.327 203.025 C 181.897 204.206,182.783 205.146,182.963 205.821 C 183.310 207.126,184.271 208.185,185.109 208.185 C 185.470 208.185,185.765 208.425,185.765 208.719 C 185.765 209.012,185.988 209.253,186.261 209.253 C 186.534 209.253,186.849 209.493,186.961 209.786 C 187.074 210.080,187.589 210.320,188.105 210.320 C 188.808 210.320,188.991 210.459,188.832 210.873 C 188.716 211.176,188.769 211.333,188.950 211.221 C 189.132 211.109,189.462 211.301,189.685 211.647 C 190.056 212.226,190.074 212.227,189.898 211.660 C 189.732 211.127,189.801 211.102,190.405 211.479 C 190.789 211.719,191.103 212.197,191.103 212.541 C 191.103 212.885,191.263 213.187,191.459 213.212 C 191.655 213.236,191.981 213.276,192.184 213.301 C 192.387 213.325,192.687 213.562,192.851 213.828 C 193.081 214.199,193.211 214.211,193.417 213.877 C 193.565 213.639,193.535 213.341,193.351 213.216 C 192.934 212.933,192.922 211.370,193.339 211.628 C 193.506 211.731,193.552 212.053,193.440 212.343 C 193.329 212.634,193.410 212.814,193.621 212.743 C 193.831 212.673,193.978 212.477,193.946 212.308 C 193.915 212.140,194.103 211.866,194.365 211.700 C 194.720 211.475,194.728 211.397,194.395 211.393 C 193.601 211.384,193.924 210.244,195.018 209.199 C 195.605 208.638,196.085 208.003,196.085 207.788 C 196.085 207.574,196.486 206.922,196.975 206.341 C 197.464 205.759,197.865 205.075,197.865 204.821 C 197.865 204.566,198.105 204.158,198.399 203.915 C 198.692 203.671,198.932 203.201,198.932 202.870 C 198.932 202.539,199.413 201.808,200.000 201.246 C 200.587 200.683,201.068 199.962,201.068 199.644 C 201.068 199.326,201.548 198.605,202.135 198.043 C 202.722 197.480,203.203 196.749,203.203 196.418 C 203.203 196.087,203.443 195.617,203.737 195.374 C 204.030 195.130,204.270 194.660,204.270 194.329 C 204.270 193.998,204.751 193.267,205.338 192.705 C 205.925 192.142,206.406 191.401,206.406 191.058 C 206.406 190.714,206.566 190.334,206.762 190.214 C 206.957 190.093,207.117 189.713,207.117 189.369 C 207.117 189.026,207.598 188.285,208.185 187.722 C 208.772 187.160,209.253 186.477,209.253 186.204 C 209.253 185.932,209.919 185.041,210.734 184.225 C 211.548 183.408,212.100 182.940,211.958 183.185 C 211.571 183.857,212.010 183.719,212.811 182.918 C 213.402 182.327,213.427 182.206,212.956 182.206 C 212.644 182.206,212.305 181.886,212.203 181.495 C 212.032 180.843,211.663 180.624,210.933 180.744 C 210.781 180.769,210.564 180.548,210.450 180.252 C 210.337 179.957,209.924 179.715,209.532 179.715 C 209.048 179.715,208.886 179.546,209.024 179.186 C 209.136 178.895,209.113 178.673,208.973 178.694 C 208.219 178.806,207.874 178.588,208.056 178.114 C 208.211 177.710,207.992 177.580,207.156 177.580 C 206.410 177.580,206.050 177.406,206.050 177.046 C 206.050 176.753,205.848 176.512,205.602 176.512 C 205.355 176.512,204.950 176.186,204.700 175.787 C 204.451 175.388,204.094 175.156,203.907 175.272 C 203.718 175.388,203.661 175.236,203.779 174.930 C 203.916 174.572,203.789 174.377,203.419 174.377 C 203.104 174.377,202.847 174.220,202.847 174.028 C 202.847 173.836,202.447 173.579,201.957 173.456 C 201.358 173.305,201.066 172.984,201.062 172.470 C 201.058 171.848,200.994 171.806,200.712 172.242 C 200.522 172.536,200.364 172.648,200.361 172.491 C 200.358 172.335,200.084 172.359,199.751 172.545 C 199.218 172.844,195.076 170.450,194.306 169.398 C 194.208 169.264,191.486 167.113,188.256 164.618 C 185.027 162.123,182.064 159.812,181.673 159.483 C 178.874 157.132,178.430 156.908,177.849 157.562 M267.151 181.012 C 267.384 181.107,267.487 181.415,267.380 181.696 C 267.272 181.977,267.327 182.206,267.502 182.206 C 267.677 182.206,267.844 181.886,267.874 181.495 C 267.908 181.033,267.716 180.793,267.327 180.811 C 266.990 180.827,266.912 180.915,267.151 181.012 M214.790 184.152 C 215.170 184.440,215.641 184.675,215.836 184.675 C 216.032 184.675,215.881 184.440,215.501 184.152 C 215.121 183.865,214.650 183.630,214.455 183.630 C 214.259 183.630,214.410 183.865,214.790 184.152 M267.849 184.603 C 267.559 185.650,267.814 186.894,268.383 187.213 C 268.751 187.418,268.921 187.355,268.921 187.011 C 268.921 186.734,268.787 186.591,268.624 186.691 C 268.461 186.792,268.327 186.715,268.327 186.519 C 268.327 186.323,268.488 186.064,268.683 185.943 C 269.273 185.578,269.083 184.960,268.455 185.201 C 267.981 185.383,267.951 185.329,268.294 184.915 C 268.559 184.596,268.588 184.324,268.370 184.190 C 268.179 184.072,267.945 184.258,267.849 184.603 M216.215 185.016 C 216.107 185.191,216.258 185.426,216.550 185.539 C 216.873 185.663,217.082 185.538,217.082 185.220 C 217.082 184.645,216.526 184.514,216.215 185.016 M267.688 188.529 C 267.453 188.607,267.260 188.898,267.260 189.176 C 267.260 189.543,266.778 189.680,265.480 189.680 C 264.136 189.680,263.701 189.810,263.701 190.214 C 263.701 190.623,263.246 190.747,261.744 190.747 C 260.241 190.747,259.786 190.871,259.786 191.281 C 259.786 191.696,259.312 191.815,257.651 191.815 C 255.991 191.815,255.516 191.934,255.516 192.349 C 255.516 192.772,255.002 192.883,253.025 192.883 C 251.048 192.883,250.534 192.993,250.534 193.416 C 250.534 193.832,250.059 193.950,248.399 193.950 C 246.738 193.950,246.263 194.069,246.263 194.484 C 246.263 194.899,245.789 195.018,244.128 195.018 C 242.467 195.018,241.993 195.136,241.993 195.552 C 241.993 195.961,241.538 196.085,240.036 196.085 C 238.959 196.085,238.078 196.246,238.078 196.441 C 238.078 196.639,237.129 196.797,235.943 196.797 C 234.331 196.797,233.808 196.922,233.808 197.305 C 233.808 197.584,233.528 197.886,233.185 197.975 C 232.592 198.130,232.592 198.140,233.185 198.179 C 233.528 198.202,233.808 198.370,233.808 198.553 C 233.808 198.735,234.097 198.976,234.450 199.088 C 234.803 199.200,235.724 199.895,236.496 200.632 C 237.268 201.369,238.941 202.761,240.214 203.724 C 241.486 204.688,242.997 205.926,243.573 206.475 C 244.148 207.024,244.737 207.473,244.882 207.473 C 245.027 207.473,245.357 207.678,245.615 207.929 C 245.874 208.180,247.126 209.173,248.399 210.137 C 249.671 211.100,250.792 211.995,250.890 212.125 C 250.988 212.255,252.189 213.204,253.559 214.233 C 254.929 215.263,256.103 216.245,256.168 216.416 C 256.234 216.586,256.514 216.726,256.791 216.726 C 257.069 216.726,257.295 216.855,257.295 217.013 C 257.295 217.171,258.296 218.037,259.520 218.937 C 260.743 219.837,262.129 220.909,262.599 221.319 C 263.069 221.729,263.550 222.067,263.667 222.070 C 263.783 222.073,264.440 222.570,265.125 223.174 C 265.810 223.778,267.371 225.007,268.594 225.906 C 269.818 226.804,270.819 227.669,270.819 227.827 C 270.819 227.985,271.019 228.115,271.263 228.117 C 271.508 228.119,272.600 228.879,273.690 229.807 C 274.779 230.735,276.661 232.211,277.871 233.087 C 279.081 233.964,280.071 234.884,280.071 235.134 C 280.071 235.609,280.763 235.784,280.809 235.320 C 280.824 235.173,280.904 234.688,280.987 234.241 C 281.080 233.739,280.934 233.351,280.604 233.225 C 280.231 233.081,280.071 232.496,280.071 231.267 C 280.071 230.038,279.912 229.454,279.537 229.310 C 279.158 229.164,279.004 228.572,279.004 227.257 C 279.004 226.241,278.827 225.233,278.612 225.018 C 278.397 224.802,278.221 224.050,278.221 223.345 C 278.221 222.641,278.082 222.064,277.912 222.064 C 277.742 222.064,277.695 221.824,277.807 221.530 C 277.920 221.237,277.835 220.996,277.618 220.996 C 277.384 220.996,277.224 220.292,277.224 219.261 C 277.224 218.152,277.031 217.365,276.690 217.082 C 276.367 216.814,276.157 216.034,276.157 215.106 C 276.157 214.243,275.932 213.349,275.641 213.059 C 275.358 212.776,275.088 211.798,275.041 210.886 C 274.993 209.974,274.745 209.054,274.488 208.841 C 274.231 208.628,274.021 207.764,274.021 206.921 C 274.021 206.058,273.796 205.164,273.506 204.874 C 273.223 204.590,272.952 203.599,272.904 202.670 C 272.856 201.741,272.621 200.786,272.382 200.547 C 272.144 200.309,271.907 199.407,271.856 198.544 C 271.804 197.681,271.555 196.728,271.301 196.425 C 271.048 196.123,270.764 195.097,270.671 194.145 C 270.577 193.193,270.315 192.300,270.088 192.159 C 269.861 192.019,269.638 191.430,269.592 190.850 C 269.547 190.271,269.379 189.586,269.219 189.327 C 269.016 188.999,269.066 188.943,269.386 189.140 C 269.685 189.325,269.789 189.261,269.688 188.957 C 269.531 188.487,268.484 188.263,267.688 188.529 M222.086 189.409 C 222.172 189.464,222.621 189.828,223.084 190.217 C 223.896 190.900,223.921 190.901,223.796 190.249 C 223.720 189.855,223.302 189.517,222.797 189.440 C 222.320 189.367,222.000 189.353,222.086 189.409 M193.863 214.471 C 194.109 214.570,194.220 214.798,194.109 214.977 C 193.999 215.156,194.278 215.297,194.730 215.291 C 195.529 215.280,195.533 215.266,194.861 214.757 C 194.481 214.470,194.000 214.248,193.793 214.263 C 193.586 214.278,193.618 214.372,193.863 214.471 " stroke="none" fill="#ea3434" fill-rule="evenodd"></path><path id="path2" d="M136.833 258.363 C 136.712 258.559,136.302 258.719,135.922 258.719 C 135.397 258.719,135.231 258.967,135.231 259.748 C 135.231 260.335,135.002 260.866,134.698 260.983 C 134.404 261.095,134.164 261.604,134.164 262.114 C 134.164 262.623,133.923 263.280,133.630 263.574 C 133.336 263.868,133.096 264.480,133.096 264.934 C 133.096 265.388,132.856 265.852,132.562 265.965 C 132.269 266.078,132.028 266.575,132.028 267.071 C 132.028 267.794,131.853 267.972,131.139 267.972 C 129.892 267.972,129.863 269.838,131.097 270.646 C 132.095 271.300,135.536 271.114,136.001 270.381 C 136.504 269.588,136.346 267.972,135.765 267.972 C 135.472 267.972,135.231 267.731,135.231 267.438 C 135.231 267.082,135.587 266.904,136.299 266.904 C 137.423 266.904,137.472 267.002,137.376 269.092 C 137.300 270.782,140.179 271.778,142.794 270.964 C 143.619 270.707,143.701 267.972,142.883 267.972 C 142.589 267.972,142.349 267.731,142.349 267.438 C 142.349 267.144,142.109 266.904,141.815 266.904 C 141.429 266.904,141.281 266.509,141.281 265.480 C 141.281 264.452,141.133 264.057,140.747 264.057 C 140.352 264.057,140.214 263.642,140.214 262.456 C 140.214 261.575,140.053 260.854,139.858 260.854 C 139.662 260.854,139.502 260.431,139.502 259.915 C 139.502 258.508,137.473 257.328,136.833 258.363 M170.534 258.434 C 170.299 258.669,170.107 259.232,170.107 259.685 C 170.107 260.137,169.917 260.812,169.684 261.184 C 168.724 262.723,171.130 264.170,172.389 262.811 C 173.957 261.119,174.377 261.565,174.377 264.922 C 174.377 267.762,174.335 267.928,173.577 268.036 C 172.528 268.185,172.368 269.370,173.266 270.334 C 173.921 271.037,175.675 271.202,178.915 270.865 C 179.594 270.794,179.508 267.972,178.826 267.972 C 178.393 267.972,178.292 267.398,178.292 264.947 C 178.292 262.495,178.393 261.922,178.826 261.922 C 179.119 261.922,179.359 262.082,179.359 262.278 C 179.359 262.473,179.689 262.633,180.092 262.633 C 180.495 262.633,180.725 262.795,180.603 262.992 C 180.269 263.533,181.502 263.868,182.208 263.427 C 182.660 263.144,182.941 263.153,183.252 263.460 C 183.580 263.782,183.784 263.735,184.138 263.256 C 184.391 262.914,184.781 262.633,185.004 262.633 C 185.227 262.633,185.409 262.473,185.409 262.278 C 185.409 262.082,185.730 261.922,186.121 261.922 C 186.777 261.922,186.833 262.159,186.833 264.947 C 186.833 267.398,186.732 267.972,186.299 267.972 C 185.914 267.972,185.765 268.366,185.765 269.388 C 185.765 271.159,186.739 271.468,190.658 270.942 C 191.946 270.769,192.533 267.972,191.281 267.972 C 190.849 267.972,190.747 267.398,190.747 264.947 C 190.747 262.495,190.849 261.922,191.281 261.922 C 191.575 261.922,191.815 262.082,191.815 262.278 C 191.815 262.473,192.038 262.633,192.311 262.633 C 192.583 262.633,192.899 262.874,193.011 263.167 C 193.390 264.153,194.585 263.792,194.844 262.615 C 195.302 260.531,195.904 261.705,196.010 264.886 C 196.096 267.471,196.024 267.972,195.565 267.972 C 194.719 267.972,194.793 270.810,195.641 270.841 C 204.462 271.167,204.982 271.079,204.982 269.264 C 204.982 268.487,205.184 267.970,205.541 267.833 C 206.700 267.389,205.990 266.024,204.537 265.904 C 203.287 265.800,203.203 265.719,203.203 264.619 C 203.203 263.557,203.289 263.460,204.093 263.614 C 204.956 263.779,204.982 263.725,204.982 261.785 C 204.982 260.686,204.822 259.786,204.626 259.786 C 204.431 259.786,204.270 259.540,204.270 259.240 C 204.270 258.770,203.534 258.699,199.098 258.739 C 195.422 258.772,193.770 258.656,193.389 258.340 C 192.982 258.003,192.752 257.995,192.440 258.307 C 191.869 258.878,184.631 258.865,184.057 258.292 C 183.725 257.960,183.535 257.960,183.203 258.292 C 182.968 258.527,182.440 258.719,182.028 258.719 C 181.617 258.719,181.089 258.527,180.854 258.292 C 180.522 257.960,180.332 257.960,180.000 258.292 C 179.465 258.827,171.886 258.894,171.886 258.363 C 171.886 257.872,171.052 257.916,170.534 258.434 M148.754 259.778 C 148.754 260.516,149.025 261.015,149.644 261.421 C 151.041 262.336,151.023 267.972,149.623 267.972 C 148.790 267.972,148.721 268.084,148.822 269.283 C 148.961 270.928,149.352 271.034,154.715 270.885 L 158.719 270.774 158.760 269.818 C 158.792 269.080,158.841 269.024,158.973 269.573 C 159.267 270.798,159.640 270.913,163.589 270.995 C 168.471 271.096,169.039 270.981,169.039 269.890 C 169.039 269.371,169.247 269.039,169.573 269.039 C 169.968 269.039,170.107 268.624,170.107 267.438 L 170.107 265.836 168.683 265.836 C 167.308 265.836,167.260 265.797,167.260 264.651 C 167.260 263.652,167.385 263.471,168.060 263.495 C 168.805 263.521,168.869 263.354,168.966 261.121 L 169.072 258.719 164.073 258.719 L 159.075 258.719 159.075 259.972 C 159.075 260.963,159.261 261.310,159.964 261.631 C 161.060 262.130,161.388 267.972,160.320 267.972 C 159.964 267.972,159.786 267.616,159.786 266.904 C 159.786 265.896,159.707 265.836,158.363 265.836 C 157.335 265.836,156.940 265.985,156.940 266.370 C 156.940 266.664,156.699 266.904,156.406 266.904 C 156.112 266.904,155.872 267.144,155.872 267.438 C 155.872 267.794,155.516 267.972,154.804 267.972 L 153.737 267.972 153.737 265.004 C 153.737 262.192,153.783 262.015,154.617 261.635 C 155.510 261.228,156.130 259.781,155.706 259.095 C 155.570 258.874,154.091 258.719,152.114 258.719 L 148.754 258.719 148.754 259.778 M206.406 260.142 C 206.406 260.925,206.566 261.566,206.762 261.566 C 206.972 261.566,207.117 262.871,207.117 264.769 C 207.117 266.667,206.972 267.972,206.762 267.972 C 205.871 267.972,206.383 270.799,207.317 271.034 C 208.637 271.365,211.460 270.973,211.900 270.397 C 212.303 269.869,213.523 269.938,213.523 270.489 C 213.523 270.670,214.404 270.819,215.480 270.819 L 217.438 270.819 217.438 269.395 C 217.438 268.367,217.289 267.972,216.904 267.972 C 216.610 267.972,216.370 267.731,216.370 267.438 C 216.370 267.144,216.130 266.904,215.836 266.904 C 215.543 266.904,215.302 266.664,215.302 266.370 C 215.302 266.077,215.062 265.836,214.769 265.836 C 214.475 265.836,214.235 265.596,214.235 265.302 C 214.235 265.009,214.475 264.769,214.769 264.769 C 215.062 264.769,215.302 264.523,215.302 264.224 C 215.302 263.924,215.543 263.587,215.836 263.474 C 216.142 263.356,216.370 262.825,216.370 262.228 C 216.370 261.632,216.142 261.100,215.836 260.983 C 215.543 260.870,215.302 260.555,215.302 260.282 C 215.302 260.010,215.062 259.786,214.769 259.786 C 214.475 259.786,214.235 259.546,214.235 259.253 C 214.235 258.811,213.563 258.719,210.320 258.719 L 206.406 258.719 206.406 260.142 M222.776 260.142 C 222.776 261.170,222.924 261.566,223.310 261.566 C 223.745 261.566,223.843 262.159,223.843 264.769 C 223.843 267.378,223.745 267.972,223.310 267.972 C 222.924 267.972,222.776 268.367,222.776 269.395 C 222.776 270.672,222.867 270.820,223.665 270.834 C 224.155 270.842,225.996 270.849,227.758 270.849 C 229.520 270.849,231.361 270.842,231.851 270.834 C 232.649 270.820,232.740 270.672,232.740 269.395 C 232.740 268.209,232.859 267.972,233.452 267.972 C 233.843 267.972,234.164 268.130,234.164 268.323 C 234.164 268.929,235.362 270.107,235.979 270.107 C 236.303 270.107,236.781 270.364,237.042 270.678 C 237.562 271.305,241.471 271.256,241.932 270.616 C 242.063 270.434,242.491 270.111,242.883 269.900 C 243.274 269.688,243.748 269.177,243.936 268.765 C 244.468 267.599,246.263 267.421,246.263 268.535 C 246.263 268.812,246.504 269.039,246.797 269.039 C 247.091 269.039,247.331 269.279,247.331 269.573 C 247.331 269.924,247.683 270.107,248.361 270.107 C 248.947 270.107,249.478 270.336,249.595 270.641 C 249.870 271.357,253.478 271.382,254.187 270.673 C 254.463 270.397,255.075 270.117,255.547 270.050 C 256.280 269.947,256.422 269.707,256.515 268.416 C 256.638 266.719,257.431 266.334,257.797 267.794 C 257.920 268.283,258.178 268.683,258.370 268.683 C 258.562 268.683,258.719 268.906,258.719 269.179 C 258.719 269.451,259.158 269.784,259.694 269.918 C 260.230 270.053,260.778 270.340,260.911 270.555 C 261.334 271.240,265.257 271.338,265.805 270.678 C 266.066 270.364,266.517 270.107,266.808 270.107 C 267.628 270.107,269.026 268.597,269.033 267.705 C 269.036 267.264,269.199 266.904,269.395 266.904 C 269.598 266.904,269.751 265.836,269.751 264.413 C 269.751 262.989,269.598 261.922,269.395 261.922 C 269.199 261.922,269.039 261.672,269.039 261.368 C 269.039 259.693,266.916 258.719,263.266 258.719 C 260.410 258.719,259.786 258.815,259.786 259.253 C 259.786 259.546,259.546 259.786,259.253 259.786 C 258.959 259.786,258.719 260.027,258.719 260.320 C 258.719 260.614,258.479 260.854,258.185 260.854 C 257.776 260.854,257.645 261.331,257.623 262.900 C 257.608 264.026,257.514 264.746,257.416 264.502 C 257.293 264.198,256.340 264.057,254.419 264.057 L 251.601 264.057 251.601 265.480 C 251.601 266.509,251.750 266.904,252.135 266.904 C 252.429 266.904,252.669 267.144,252.669 267.438 C 252.669 268.343,251.066 268.076,250.534 267.082 C 250.272 266.593,249.925 266.192,249.762 266.192 C 248.949 266.192,249.471 262.751,250.356 262.278 C 250.845 262.016,251.248 261.548,251.251 261.239 C 251.255 260.876,251.349 260.817,251.518 261.073 C 251.662 261.291,252.130 261.579,252.558 261.713 C 252.988 261.847,253.385 262.305,253.447 262.739 C 253.539 263.387,253.824 263.542,255.088 263.633 L 256.617 263.744 256.511 261.320 L 256.406 258.897 252.403 258.796 C 248.296 258.693,246.263 259.323,246.263 260.700 C 246.263 260.932,246.028 261.318,245.739 261.558 C 245.129 262.064,244.128 261.312,244.128 260.346 C 244.128 260.038,243.888 259.786,243.594 259.786 C 243.301 259.786,243.060 259.546,243.060 259.253 C 243.060 258.812,242.407 258.719,239.313 258.719 C 236.310 258.719,235.524 258.825,235.360 259.253 C 235.247 259.546,234.932 259.786,234.659 259.786 C 234.346 259.786,234.164 260.179,234.164 260.854 C 234.164 261.566,233.986 261.922,233.630 261.922 C 233.220 261.922,233.096 262.376,233.096 263.879 C 233.096 265.817,233.085 265.836,232.028 265.836 C 231.317 265.836,230.961 266.014,230.961 266.370 C 230.961 266.664,230.721 266.904,230.427 266.904 C 230.133 266.904,229.893 267.144,229.893 267.438 C 229.893 267.794,229.537 267.972,228.826 267.972 L 227.758 267.972 227.758 264.935 C 227.758 262.565,227.875 261.854,228.292 261.695 C 228.640 261.561,228.826 261.007,228.826 260.104 L 228.826 258.719 225.801 258.719 L 222.776 258.719 222.776 260.142 M240.214 262.363 C 240.214 262.512,240.454 262.633,240.747 262.633 C 241.163 262.633,241.281 263.108,241.281 264.769 C 241.281 266.429,241.163 266.904,240.747 266.904 C 240.454 266.904,240.214 267.144,240.214 267.438 C 240.214 267.794,239.858 267.972,239.146 267.972 C 238.471 267.972,238.078 267.789,238.078 267.476 C 238.078 267.203,237.838 266.888,237.544 266.775 C 236.563 266.398,236.835 263.118,237.933 262.100 C 238.819 261.279,240.214 261.440,240.214 262.363 M264.257 261.905 C 265.640 263.297,265.836 263.697,265.836 265.121 C 265.836 266.081,265.656 266.640,265.302 266.775 C 265.009 266.888,264.769 267.203,264.769 267.476 C 264.769 267.789,264.376 267.972,263.701 267.972 C 262.989 267.972,262.633 267.794,262.633 267.438 C 262.633 267.144,262.409 266.904,262.135 266.904 C 261.806 266.904,261.595 266.391,261.513 265.391 C 261.317 263.025,261.533 262.109,262.383 261.687 C 263.493 261.136,263.493 261.136,264.257 261.905 M165.125 262.456 C 165.125 262.749,164.884 262.989,164.591 262.989 C 164.297 262.989,164.057 262.749,164.057 262.456 C 164.057 262.162,164.297 261.922,164.591 261.922 C 164.884 261.922,165.125 262.162,165.125 262.456 M212.456 262.456 C 212.456 262.749,212.215 262.989,211.922 262.989 C 211.628 262.989,211.388 263.230,211.388 263.523 C 211.388 263.817,211.148 264.057,210.854 264.057 C 210.498 264.057,210.320 263.701,210.320 262.989 C 210.320 262.040,210.439 261.922,211.388 261.922 C 212.100 261.922,212.456 262.100,212.456 262.456 M165.125 266.370 C 165.125 266.664,165.440 266.904,165.825 266.904 C 166.302 266.904,166.460 267.075,166.321 267.438 C 165.900 268.534,164.057 268.099,164.057 266.904 C 164.057 266.192,164.235 265.836,164.591 265.836 C 164.884 265.836,165.125 266.077,165.125 266.370 M202.135 267.478 C 202.135 267.789,201.741 267.972,201.068 267.972 C 200.271 267.972,200.000 267.807,200.000 267.321 C 200.000 266.802,200.214 266.703,201.068 266.828 C 201.665 266.916,202.135 267.202,202.135 267.478 M211.388 267.438 C 211.388 267.731,211.148 267.972,210.854 267.972 C 210.560 267.972,210.320 267.731,210.320 267.438 C 210.320 267.144,210.560 266.904,210.854 266.904 C 211.148 266.904,211.388 267.144,211.388 267.438 " stroke="none" fill="#353434" fill-rule="evenodd"></path><path id="path3" d="M242.521 87.467 C 242.321 87.607,241.223 89.564,240.081 91.815 C 237.781 96.344,237.358 97.188,231.867 108.185 C 229.766 112.393,227.913 116.077,227.748 116.370 C 226.138 119.235,212.791 146.742,212.552 147.687 C 212.206 149.058,212.330 150.178,212.829 150.178 C 213.018 150.178,213.015 150.533,212.822 151.040 C 212.582 151.672,212.631 152.016,213.009 152.329 C 213.292 152.564,213.523 153.307,213.523 153.979 C 213.523 154.756,213.662 155.116,213.903 154.967 C 214.112 154.838,214.194 154.500,214.085 154.216 C 213.970 153.917,214.041 153.795,214.253 153.926 C 214.455 154.051,214.522 154.459,214.403 154.834 C 214.172 155.563,215.065 155.833,215.480 155.160 C 215.601 154.964,216.560 154.804,217.611 154.804 C 218.835 154.804,219.714 154.612,220.056 154.270 C 220.370 153.956,221.240 153.737,222.173 153.737 C 223.146 153.737,223.927 153.531,224.199 153.203 C 224.479 152.865,225.264 152.669,226.335 152.669 C 227.405 152.669,228.190 152.473,228.470 152.135 C 228.770 151.774,229.574 151.601,230.961 151.601 C 232.347 151.601,233.152 151.429,233.452 151.068 C 233.734 150.728,234.520 150.534,235.610 150.534 C 236.553 150.534,237.424 150.374,237.544 150.178 C 237.665 149.982,238.536 149.822,239.479 149.822 C 240.569 149.822,241.355 149.628,241.637 149.288 C 241.904 148.967,242.682 148.754,243.594 148.754 C 244.506 148.754,245.285 148.542,245.552 148.221 C 245.832 147.883,246.617 147.687,247.687 147.687 C 248.757 147.687,249.542 147.491,249.822 147.153 C 250.129 146.783,250.947 146.619,252.491 146.619 C 254.036 146.619,254.853 146.456,255.160 146.085 C 255.404 145.792,255.984 145.552,256.449 145.552 C 256.949 145.552,257.295 145.341,257.295 145.039 C 257.295 144.757,257.480 144.412,257.706 144.272 C 257.949 144.122,258.021 144.174,257.882 144.399 C 257.753 144.608,257.848 144.860,258.094 144.959 C 258.440 145.099,258.436 145.146,258.075 145.168 C 257.557 145.199,257.853 145.907,258.384 145.907 C 258.979 145.907,258.739 144.539,258.060 144.059 C 257.698 143.804,257.444 143.314,257.495 142.972 C 257.546 142.629,257.423 142.349,257.220 142.349 C 257.015 142.349,257.067 142.091,257.338 141.764 C 257.765 141.249,257.739 141.205,257.115 141.403 C 256.447 141.614,256.407 141.468,256.434 138.874 C 256.453 137.020,256.312 136.005,256.003 135.765 C 255.751 135.569,255.510 134.569,255.467 133.541 C 255.414 132.269,255.239 131.673,254.919 131.673 C 254.524 131.673,254.288 130.025,254.479 128.599 C 254.496 128.474,254.307 128.246,254.059 128.093 C 253.580 127.797,253.458 127.312,253.324 125.163 C 253.278 124.421,253.031 123.641,252.777 123.429 C 252.509 123.207,252.313 122.291,252.313 121.259 C 252.313 120.034,252.135 119.343,251.745 119.058 C 251.358 118.775,251.169 118.056,251.152 116.810 C 251.139 115.802,250.995 115.060,250.831 115.161 C 250.509 115.360,250.447 115.036,250.465 113.254 C 250.473 112.494,250.257 111.976,249.838 111.752 C 249.047 111.329,248.705 110.156,249.223 109.639 C 249.500 109.361,249.474 109.127,249.129 108.808 C 248.740 108.446,248.703 108.463,248.932 108.897 C 249.162 109.331,249.125 109.347,248.735 108.986 C 248.078 108.375,246.327 108.426,245.679 109.075 C 245.369 109.384,244.500 109.609,243.612 109.609 C 242.684 109.609,241.905 109.819,241.637 110.142 C 241.357 110.480,240.572 110.676,239.502 110.676 C 238.432 110.676,237.647 110.872,237.367 111.210 C 237.084 111.551,236.297 111.744,235.188 111.744 C 234.233 111.744,233.452 111.904,233.452 112.100 C 233.452 112.295,232.891 112.456,232.206 112.456 C 230.722 112.456,230.696 112.280,231.851 110.108 C 232.340 109.188,232.740 108.158,232.740 107.820 C 232.740 107.481,232.980 107.005,233.274 106.762 C 233.568 106.518,233.808 106.037,233.808 105.694 C 233.808 105.350,234.048 104.870,234.342 104.626 C 234.635 104.383,234.875 103.902,234.875 103.559 C 234.875 103.215,235.116 102.735,235.409 102.491 C 235.703 102.247,235.943 101.857,235.943 101.623 C 235.943 101.110,241.117 90.769,241.631 90.255 C 241.830 90.056,241.993 89.613,241.993 89.270 C 241.993 88.928,242.254 88.501,242.573 88.323 C 242.892 88.145,243.092 87.821,243.018 87.605 C 242.943 87.389,242.720 87.326,242.521 87.467 M248.043 103.936 C 248.043 104.143,247.862 104.201,247.641 104.064 C 247.401 103.916,247.302 104.006,247.396 104.288 C 247.661 105.082,248.399 105.091,248.399 104.300 C 248.399 103.892,248.319 103.559,248.221 103.559 C 248.123 103.559,248.043 103.728,248.043 103.936 M160.523 156.317 C 160.509 156.659,160.378 156.921,160.231 156.897 C 159.129 156.723,158.819 156.994,158.939 158.025 C 159.008 158.624,158.919 159.020,158.739 158.909 C 158.559 158.798,158.310 158.873,158.185 159.075 C 158.060 159.277,157.814 159.353,157.637 159.244 C 157.461 159.135,157.205 159.493,157.069 160.039 C 156.933 160.585,156.568 161.233,156.258 161.478 C 155.754 161.876,155.760 161.900,156.317 161.707 C 156.665 161.585,156.940 161.663,156.940 161.884 C 156.940 162.100,156.699 162.278,156.406 162.278 C 156.109 162.278,155.872 162.594,155.872 162.989 C 155.872 163.420,155.626 163.711,155.249 163.726 C 154.717 163.747,154.729 163.795,155.338 164.057 C 155.890 164.294,155.919 164.368,155.468 164.388 C 154.923 164.411,153.737 166.355,153.737 167.225 C 153.737 167.440,153.567 167.616,153.360 167.616 C 153.152 167.616,153.082 167.776,153.203 167.972 C 153.324 168.167,153.253 168.327,153.046 168.327 C 152.839 168.327,152.669 168.568,152.669 168.861 C 152.669 169.155,152.499 169.395,152.292 169.395 C 152.085 169.395,151.997 169.527,152.096 169.687 C 152.195 169.848,152.060 170.397,151.795 170.908 C 151.531 171.418,151.401 171.923,151.509 172.031 C 151.616 172.138,151.440 172.326,151.119 172.450 C 150.797 172.573,150.534 172.968,150.534 173.327 C 150.534 173.686,150.384 174.072,150.200 174.186 C 150.016 174.299,149.925 174.702,149.998 175.080 C 150.085 175.531,149.881 175.847,149.407 175.998 C 148.864 176.170,148.785 176.329,149.089 176.634 C 149.394 176.939,149.581 176.907,149.837 176.509 C 150.119 176.070,150.216 176.117,150.397 176.779 C 150.642 177.671,151.601 177.883,151.601 177.046 C 151.601 176.753,151.902 176.512,152.270 176.512 C 152.637 176.512,153.137 176.753,153.381 177.046 C 153.624 177.340,154.345 177.580,154.982 177.580 C 155.619 177.580,156.327 177.805,156.555 178.079 C 156.782 178.353,157.362 178.677,157.844 178.797 C 158.325 178.918,158.719 179.174,158.719 179.366 C 158.719 179.558,159.270 179.715,159.943 179.715 C 160.617 179.715,161.267 179.875,161.388 180.071 C 161.509 180.267,161.919 180.427,162.299 180.427 C 162.829 180.427,162.989 180.675,162.989 181.495 C 162.989 182.082,162.832 182.562,162.640 182.562 C 162.448 182.562,162.181 183.003,162.047 183.541 C 161.913 184.079,161.511 185.000,161.154 185.587 C 160.797 186.174,160.411 186.895,160.298 187.189 C 160.184 187.482,159.963 187.963,159.806 188.256 C 159.503 188.823,160.618 190.747,161.249 190.747 C 161.440 190.747,161.789 190.909,162.026 191.107 C 162.262 191.305,163.016 191.943,163.701 192.525 C 164.386 193.107,165.079 193.585,165.241 193.589 C 165.402 193.592,166.471 194.315,167.616 195.196 C 168.760 196.077,169.779 196.797,169.880 196.797 C 169.980 196.797,170.589 197.278,171.232 197.865 C 171.875 198.452,172.537 198.932,172.703 198.932 C 172.869 198.932,173.214 199.133,173.469 199.377 C 173.725 199.622,174.291 200.062,174.726 200.356 C 175.162 200.649,176.785 201.810,178.333 202.936 C 179.882 204.061,181.307 204.982,181.500 204.982 C 181.693 204.982,181.851 205.222,181.851 205.516 C 181.851 205.810,182.016 206.050,182.219 206.050 C 182.759 206.050,182.067 204.914,181.134 204.270 C 180.709 203.977,180.060 203.496,179.692 203.203 C 179.324 202.909,177.088 201.308,174.724 199.644 C 172.360 197.980,168.509 195.218,166.166 193.505 C 163.823 191.793,161.808 190.391,161.689 190.391 C 161.569 190.391,161.182 190.058,160.829 189.651 C 160.110 188.822,160.168 188.563,161.687 185.765 C 162.272 184.689,163.261 182.847,163.886 181.673 C 164.510 180.498,165.546 178.577,166.187 177.402 C 169.349 171.613,173.310 163.588,173.310 162.971 C 173.310 162.590,173.550 162.278,173.843 162.278 C 174.140 162.278,174.377 161.961,174.377 161.566 C 174.377 161.099,174.140 160.854,173.686 160.854 C 173.307 160.854,172.897 160.694,172.776 160.498 C 172.655 160.302,172.024 160.142,171.375 160.142 C 170.725 160.142,169.995 159.902,169.751 159.609 C 169.507 159.315,169.027 159.075,168.683 159.075 C 168.340 159.075,167.859 158.835,167.616 158.541 C 167.372 158.247,166.723 158.007,166.174 158.007 C 165.625 158.007,164.949 157.781,164.673 157.505 C 164.397 157.228,163.464 156.954,162.601 156.896 C 161.610 156.828,160.943 156.587,160.790 156.242 C 160.587 155.782,160.544 155.794,160.523 156.317 M201.423 169.039 C 201.423 169.258,201.282 169.349,201.108 169.242 C 200.935 169.135,200.716 169.450,200.622 169.941 C 200.528 170.433,200.590 170.921,200.759 171.026 C 200.929 171.131,201.068 170.967,201.068 170.662 C 201.068 170.356,201.211 170.107,201.385 170.107 C 201.855 170.107,202.159 169.096,201.764 168.852 C 201.577 168.736,201.423 168.820,201.423 169.039 M196.797 169.929 C 196.797 170.222,197.057 170.463,197.375 170.463 C 197.847 170.463,197.872 170.366,197.509 169.929 C 197.265 169.635,197.005 169.395,196.932 169.395 C 196.858 169.395,196.797 169.635,196.797 169.929 M199.034 170.869 C 199.087 171.573,199.864 172.038,200.168 171.547 C 200.464 171.068,200.024 170.225,199.477 170.225 C 199.207 170.225,199.007 170.515,199.034 170.869 M230.134 198.810 C 230.002 198.942,229.893 199.315,229.893 199.637 C 229.893 199.959,229.413 200.683,228.826 201.246 C 228.238 201.808,227.758 202.539,227.758 202.870 C 227.758 203.201,227.518 203.671,227.224 203.915 C 226.931 204.158,226.690 204.571,226.690 204.832 C 226.690 205.092,226.290 205.706,225.801 206.195 C 225.311 206.685,224.911 207.303,224.911 207.568 C 224.911 207.834,224.431 208.512,223.843 209.075 C 223.256 209.637,222.776 210.368,222.776 210.699 C 222.776 211.030,222.536 211.500,222.242 211.744 C 221.948 211.987,221.708 212.458,221.708 212.788 C 221.708 213.119,221.228 213.850,220.641 214.413 C 220.053 214.975,219.573 215.706,219.573 216.037 C 219.573 216.368,219.333 216.838,219.039 217.082 C 218.746 217.326,218.505 217.796,218.505 218.126 C 218.505 218.457,218.025 219.188,217.438 219.751 C 216.851 220.313,216.370 221.036,216.370 221.357 C 216.370 221.678,215.970 222.316,215.480 222.776 C 214.991 223.235,214.591 223.884,214.591 224.218 C 214.591 224.551,214.349 225.025,214.053 225.271 C 213.643 225.610,213.611 225.834,213.918 226.204 C 214.215 226.561,214.216 226.690,213.923 226.690 C 213.703 226.690,213.521 226.971,213.518 227.313 C 213.514 227.680,213.405 227.783,213.251 227.563 C 212.947 227.129,211.285 226.948,211.551 227.378 C 211.649 227.536,212.223 227.765,212.828 227.886 C 213.439 228.008,213.827 228.265,213.704 228.466 C 213.581 228.664,213.651 228.826,213.858 228.826 C 214.065 228.826,214.235 228.665,214.235 228.470 C 214.235 228.274,214.390 228.114,214.580 228.114 C 214.769 228.114,214.823 228.377,214.700 228.699 C 214.424 229.417,215.497 230.289,216.285 229.986 C 216.636 229.852,216.753 229.917,216.601 230.163 C 216.467 230.381,216.674 230.653,217.069 230.779 C 217.460 230.903,217.742 231.187,217.697 231.411 C 217.652 231.635,217.787 231.825,217.997 231.834 C 218.207 231.843,218.660 232.132,219.004 232.477 C 219.349 232.821,219.770 233.017,219.940 232.911 C 220.110 232.806,220.430 233.059,220.652 233.472 C 220.873 233.886,221.135 234.144,221.233 234.046 C 221.331 233.948,221.707 234.134,222.068 234.460 C 222.429 234.786,222.970 235.254,223.269 235.498 C 223.951 236.056,234.875 236.140,234.875 235.587 C 234.875 235.391,234.507 235.231,234.057 235.231 C 232.502 235.231,232.352 234.526,233.662 233.376 C 234.329 232.790,234.875 232.027,234.875 231.679 C 234.875 231.332,235.116 230.849,235.409 230.605 C 235.703 230.361,235.943 229.891,235.943 229.560 C 235.943 229.229,236.423 228.499,237.011 227.936 C 237.598 227.373,238.078 226.642,238.078 226.312 C 238.078 225.981,238.319 225.511,238.612 225.267 C 238.906 225.023,239.146 224.553,239.146 224.222 C 239.146 223.891,239.626 223.160,240.214 222.598 C 240.801 222.035,241.281 221.315,241.281 220.996 C 241.281 220.678,241.762 219.958,242.349 219.395 C 242.936 218.832,243.416 218.091,243.416 217.748 C 243.416 217.405,243.577 217.025,243.772 216.904 C 243.968 216.783,244.128 216.459,244.128 216.183 C 244.128 215.908,244.609 215.191,245.196 214.591 C 245.783 213.990,246.263 213.284,246.263 213.021 C 246.263 211.489,248.759 211.748,250.467 213.457 C 250.857 213.846,251.511 214.271,251.922 214.402 C 252.333 214.532,252.669 214.788,252.669 214.971 C 252.669 215.153,252.909 215.302,253.203 215.302 C 253.496 215.302,253.737 215.432,253.737 215.590 C 253.737 215.748,254.738 216.612,255.961 217.511 C 257.184 218.409,258.746 219.639,259.431 220.243 C 260.116 220.847,260.772 221.344,260.889 221.347 C 261.005 221.350,261.486 221.688,261.956 222.098 C 262.427 222.508,263.812 223.580,265.036 224.480 C 266.259 225.380,267.260 226.245,267.260 226.403 C 267.260 226.561,267.418 226.690,267.612 226.690 C 267.942 226.690,268.874 227.366,269.943 228.381 C 270.201 228.625,270.570 228.826,270.763 228.826 C 270.957 228.826,271.168 228.955,271.234 229.114 C 271.299 229.273,272.451 230.240,273.793 231.263 C 276.418 233.263,277.224 233.985,277.224 234.334 C 277.224 234.456,268.136 234.541,257.028 234.523 C 236.359 234.489,234.859 234.554,235.752 235.447 C 236.527 236.222,279.715 236.184,279.715 235.409 C 279.715 235.116,279.475 234.875,279.181 234.875 C 278.888 234.875,278.648 234.723,278.648 234.537 C 278.648 234.350,277.967 233.725,277.135 233.147 C 276.303 232.569,275.302 231.794,274.911 231.426 C 274.520 231.058,273.538 230.282,272.730 229.702 C 270.809 228.325,265.353 224.124,265.125 223.847 C 265.027 223.728,264.386 223.246,263.701 222.776 C 263.016 222.305,262.375 221.823,262.278 221.705 C 262.180 221.586,260.738 220.467,259.075 219.217 C 257.411 217.967,255.970 216.841,255.872 216.715 C 255.474 216.202,235.755 201.635,234.049 200.593 C 233.035 199.974,232.126 199.369,232.028 199.248 C 231.720 198.867,230.386 198.558,230.134 198.810 " stroke="none" fill="#b83434" fill-rule="evenodd"></path><path id="path4" d="M241.993 86.494 C 241.993 86.699,241.694 87.460,241.328 88.184 C 240.963 88.909,236.667 97.429,231.783 107.117 C 223.298 123.947,222.344 125.824,221.651 127.046 C 221.484 127.340,221.249 127.820,221.129 128.114 C 220.853 128.788,219.633 131.323,219.244 132.028 C 219.082 132.322,218.626 133.203,218.229 133.986 C 217.832 134.769,217.173 135.970,216.764 136.655 C 216.355 137.340,215.954 138.060,215.873 138.256 C 215.793 138.452,215.629 138.852,215.511 139.146 C 215.392 139.440,214.979 140.160,214.592 140.747 C 214.206 141.335,213.737 142.160,213.550 142.581 C 213.364 143.002,213.041 143.452,212.833 143.581 C 212.626 143.709,212.456 144.125,212.456 144.505 C 212.456 144.885,212.298 145.196,212.106 145.196 C 211.914 145.196,211.650 145.636,211.518 146.174 C 211.166 147.611,209.253 148.438,209.253 147.153 C 209.253 146.758,208.837 146.619,207.651 146.619 C 206.465 146.619,206.050 146.481,206.050 146.085 C 206.050 145.753,205.714 145.552,205.160 145.552 C 204.607 145.552,204.270 145.350,204.270 145.018 C 204.270 144.622,203.855 144.484,202.669 144.484 C 201.483 144.484,201.068 144.346,201.068 143.950 C 201.068 143.555,200.652 143.416,199.466 143.416 C 198.280 143.416,197.865 143.278,197.865 142.883 C 197.865 142.527,197.509 142.349,196.797 142.349 C 196.210 142.349,195.730 142.189,195.730 141.993 C 195.730 141.797,195.089 141.637,194.306 141.637 C 193.278 141.637,192.883 141.489,192.883 141.103 C 192.883 140.708,192.467 140.569,191.281 140.569 C 190.095 140.569,189.680 140.431,189.680 140.036 C 189.680 139.640,189.265 139.502,188.078 139.502 C 186.892 139.502,186.477 139.363,186.477 138.968 C 186.477 138.636,186.141 138.434,185.587 138.434 C 185.034 138.434,184.698 138.233,184.698 137.900 C 184.698 137.505,184.282 137.367,183.096 137.367 C 181.910 137.367,181.495 137.228,181.495 136.833 C 181.495 136.437,181.079 136.299,179.893 136.299 C 178.707 136.299,178.292 136.161,178.292 135.765 C 178.292 135.433,177.956 135.231,177.402 135.231 C 176.873 135.231,176.512 135.028,176.512 134.729 C 176.512 134.365,175.901 134.189,174.288 134.090 C 171.500 133.919,171.360 133.968,170.681 135.346 C 170.374 135.968,170.119 136.277,170.115 136.032 C 170.110 135.787,169.937 135.587,169.730 135.587 C 169.523 135.587,169.452 135.747,169.573 135.943 C 169.694 136.139,169.623 136.299,169.416 136.299 C 169.209 136.299,169.058 136.419,169.081 136.566 C 169.182 137.203,169.018 137.751,168.772 137.600 C 168.625 137.509,168.481 137.845,168.451 138.346 C 168.420 138.847,168.140 139.400,167.828 139.575 C 167.515 139.750,167.260 140.268,167.260 140.727 C 167.260 141.186,167.020 141.653,166.726 141.766 C 166.432 141.878,166.192 142.301,166.192 142.705 C 166.192 143.108,165.952 143.531,165.658 143.644 C 165.365 143.756,165.125 144.132,165.125 144.478 C 165.125 144.825,164.884 145.308,164.591 145.552 C 164.297 145.795,164.057 146.243,164.057 146.546 C 164.057 146.849,163.831 147.350,163.555 147.659 C 163.279 147.968,162.999 148.541,162.932 148.932 C 162.866 149.324,162.634 149.804,162.418 150.000 C 162.201 150.196,161.755 151.053,161.427 151.906 C 161.098 152.758,160.583 153.703,160.282 154.004 C 159.836 154.450,159.822 154.607,160.205 154.851 C 160.565 155.079,160.532 155.151,160.065 155.155 C 159.668 155.158,159.525 155.348,159.658 155.694 C 159.770 155.988,159.685 156.228,159.469 156.228 C 159.252 156.228,159.075 156.395,159.075 156.599 C 159.075 157.149,160.281 156.848,160.562 156.228 C 160.772 155.764,160.807 155.767,160.829 156.250 C 160.847 156.658,161.294 156.829,162.500 156.892 C 163.405 156.939,164.377 157.209,164.660 157.492 C 164.944 157.775,165.625 158.007,166.174 158.007 C 166.723 158.007,167.372 158.247,167.616 158.541 C 167.859 158.835,168.340 159.075,168.683 159.075 C 169.027 159.075,169.507 159.315,169.751 159.609 C 169.995 159.902,170.725 160.142,171.375 160.142 C 172.024 160.142,172.655 160.302,172.776 160.498 C 172.897 160.694,173.307 160.854,173.686 160.854 C 174.140 160.854,174.377 161.099,174.377 161.566 C 174.377 161.961,174.140 162.278,173.843 162.278 C 173.550 162.278,173.310 162.590,173.310 162.971 C 173.310 163.588,169.349 171.613,166.187 177.402 C 165.546 178.577,164.510 180.498,163.886 181.673 C 163.261 182.847,162.272 184.689,161.687 185.765 C 160.168 188.563,160.110 188.822,160.829 189.651 C 161.182 190.058,161.569 190.391,161.689 190.391 C 161.808 190.391,163.823 191.793,166.166 193.505 C 168.509 195.218,172.360 197.980,174.724 199.644 C 177.088 201.308,179.324 202.909,179.692 203.203 C 180.060 203.496,180.716 203.977,181.149 204.270 C 181.583 204.564,182.168 205.342,182.449 205.999 C 183.056 207.420,183.365 207.335,182.971 205.854 C 182.782 205.141,181.934 204.234,180.327 203.025 C 177.741 201.079,171.812 196.830,170.892 196.263 C 170.575 196.068,170.127 195.747,169.898 195.552 C 169.670 195.356,169.119 194.956,168.674 194.662 C 163.423 191.193,160.539 188.712,160.991 188.053 C 161.427 187.417,161.984 186.425,164.719 181.406 C 165.279 180.378,166.221 178.657,166.813 177.580 C 167.405 176.504,168.412 174.662,169.051 173.488 C 169.690 172.313,170.736 170.391,171.375 169.217 C 172.014 168.043,173.002 166.201,173.570 165.125 C 178.504 155.779,177.826 156.251,181.673 159.483 C 182.064 159.812,185.027 162.123,188.256 164.618 C 191.486 167.113,194.208 169.264,194.306 169.398 C 194.404 169.532,195.545 170.379,196.841 171.281 C 199.863 173.381,200.523 173.100,200.682 169.641 C 200.698 169.287,200.872 169.096,201.068 169.217 C 201.263 169.338,201.423 169.258,201.423 169.039 C 201.423 168.820,201.584 168.740,201.779 168.861 C 201.975 168.982,202.135 168.831,202.135 168.526 C 202.135 168.221,202.261 167.972,202.415 167.972 C 202.569 167.972,202.722 167.614,202.755 167.178 C 202.788 166.741,203.071 166.197,203.384 165.968 C 203.697 165.739,203.978 165.219,204.009 164.813 C 204.040 164.408,204.271 163.996,204.523 163.899 C 204.776 163.803,204.982 163.387,204.982 162.975 C 204.982 162.563,205.222 161.987,205.516 161.693 C 205.810 161.399,206.050 160.850,206.050 160.473 C 206.050 160.095,206.290 159.786,206.584 159.786 C 206.940 159.786,207.117 159.431,207.117 158.719 C 207.117 158.007,207.295 157.651,207.651 157.651 C 207.976 157.651,208.185 157.320,208.185 156.805 C 208.185 156.340,208.425 155.760,208.719 155.516 C 209.012 155.272,209.253 154.772,209.253 154.405 C 209.253 154.037,209.440 153.737,209.668 153.737 C 209.896 153.737,209.978 153.631,209.849 153.502 C 209.720 153.374,209.784 153.065,209.991 152.815 C 210.197 152.566,210.382 151.831,210.401 151.181 C 210.420 150.532,210.503 150.200,210.586 150.445 C 210.668 150.690,210.899 150.890,211.100 150.890 C 211.300 150.890,211.370 150.643,211.254 150.342 C 211.135 150.033,211.270 149.708,211.563 149.596 C 212.016 149.422,212.015 149.331,211.557 148.872 C 211.268 148.584,211.037 148.159,211.043 147.928 C 211.049 147.698,211.217 147.789,211.416 148.132 C 211.957 149.060,212.339 148.890,212.596 147.607 C 212.768 146.746,225.956 119.559,227.748 116.370 C 227.913 116.077,229.766 112.393,231.867 108.185 C 233.968 103.977,236.208 99.493,236.845 98.221 C 240.738 90.442,242.209 87.690,242.609 87.438 C 243.234 87.044,243.176 86.121,242.527 86.121 C 242.233 86.121,241.993 86.289,241.993 86.494 M171.886 133.134 C 171.886 133.351,171.648 133.437,171.358 133.325 C 171.051 133.208,170.679 133.404,170.471 133.792 C 170.130 134.429,170.166 134.436,171.177 133.931 C 172.085 133.478,172.635 132.740,172.064 132.740 C 171.966 132.740,171.886 132.917,171.886 133.134 M256.494 140.761 C 256.385 141.332,256.468 141.617,256.719 141.534 C 257.213 141.372,257.472 139.858,257.006 139.858 C 256.819 139.858,256.589 140.264,256.494 140.761 M257.398 144.840 C 257.282 145.287,256.913 145.552,256.408 145.552 C 255.965 145.552,255.404 145.792,255.160 146.085 C 254.853 146.456,254.036 146.619,252.491 146.619 C 250.947 146.619,250.129 146.783,249.822 147.153 C 249.542 147.491,248.757 147.687,247.687 147.687 C 246.617 147.687,245.832 147.883,245.552 148.221 C 245.285 148.542,244.506 148.754,243.594 148.754 C 242.682 148.754,241.904 148.967,241.637 149.288 C 241.355 149.628,240.569 149.822,239.479 149.822 C 238.536 149.822,237.665 149.982,237.544 150.178 C 237.424 150.374,236.553 150.534,235.610 150.534 C 234.520 150.534,233.734 150.728,233.452 151.068 C 233.152 151.429,232.347 151.601,230.961 151.601 C 229.574 151.601,228.770 151.774,228.470 152.135 C 228.190 152.473,227.405 152.669,226.335 152.669 C 225.264 152.669,224.479 152.865,224.199 153.203 C 223.927 153.531,223.146 153.737,222.173 153.737 C 221.240 153.737,220.370 153.956,220.056 154.270 C 219.714 154.612,218.835 154.804,217.611 154.804 C 216.560 154.804,215.601 154.964,215.480 155.160 C 215.065 155.833,214.172 155.563,214.403 154.834 C 214.522 154.459,214.455 154.051,214.253 153.926 C 214.041 153.795,213.970 153.917,214.085 154.216 C 214.194 154.500,214.103 154.844,213.882 154.980 C 213.604 155.152,213.658 155.358,214.055 155.649 C 214.454 155.940,214.635 156.640,214.645 157.928 C 214.653 158.950,214.793 159.704,214.956 159.603 C 215.426 159.312,215.611 159.870,215.701 161.854 C 215.748 162.877,215.956 163.701,216.167 163.702 C 216.376 163.702,216.577 164.433,216.613 165.327 C 216.649 166.221,216.828 167.141,217.010 167.373 C 217.192 167.604,217.450 168.509,217.584 169.384 C 217.718 170.259,217.965 171.060,218.133 171.164 C 218.301 171.268,218.527 172.151,218.634 173.127 C 218.741 174.102,218.997 174.956,219.201 175.024 C 219.406 175.092,219.573 175.848,219.573 176.702 C 219.573 177.686,219.761 178.362,220.086 178.543 C 220.398 178.718,220.633 179.498,220.687 180.539 C 220.736 181.478,220.974 182.358,221.216 182.493 C 221.458 182.629,221.708 183.461,221.771 184.342 C 221.834 185.222,222.087 186.103,222.332 186.299 C 222.577 186.495,222.803 187.329,222.835 188.153 C 222.866 188.976,223.027 189.567,223.192 189.465 C 223.501 189.273,224.050 190.304,223.781 190.572 C 223.699 190.655,223.206 190.328,222.685 189.845 C 222.165 189.363,221.589 188.968,221.406 188.968 C 221.223 188.968,220.980 188.728,220.868 188.434 C 220.755 188.141,220.418 187.900,220.118 187.900 C 219.818 187.900,219.573 187.660,219.573 187.367 C 219.573 187.073,219.350 186.833,219.077 186.833 C 218.805 186.833,218.498 186.615,218.396 186.350 C 218.294 186.084,217.706 185.765,217.089 185.642 C 216.472 185.519,216.056 185.274,216.165 185.098 C 216.273 184.922,216.028 184.691,215.619 184.584 C 215.210 184.477,214.980 184.220,215.107 184.014 C 215.244 183.793,215.131 183.718,214.834 183.832 C 214.524 183.951,214.254 183.743,214.137 183.294 C 213.915 182.445,212.884 182.314,212.584 183.096 C 212.472 183.390,212.227 183.630,212.041 183.630 C 211.854 183.630,211.817 183.430,211.958 183.185 C 212.100 182.940,211.548 183.408,210.734 184.225 C 209.919 185.041,209.253 185.932,209.253 186.204 C 209.253 186.477,208.772 187.160,208.185 187.722 C 207.598 188.285,207.117 189.026,207.117 189.369 C 207.117 189.713,206.957 190.093,206.762 190.214 C 206.566 190.334,206.406 190.714,206.406 191.058 C 206.406 191.401,205.925 192.142,205.338 192.705 C 204.751 193.267,204.270 193.998,204.270 194.329 C 204.270 194.660,204.030 195.130,203.737 195.374 C 203.443 195.617,203.203 196.087,203.203 196.418 C 203.203 196.749,202.722 197.480,202.135 198.043 C 201.548 198.605,201.068 199.326,201.068 199.644 C 201.068 199.962,200.587 200.683,200.000 201.246 C 199.413 201.808,198.932 202.539,198.932 202.870 C 198.932 203.201,198.692 203.671,198.399 203.915 C 198.105 204.158,197.865 204.566,197.865 204.821 C 197.865 205.075,197.464 205.759,196.975 206.341 C 196.486 206.922,196.085 207.574,196.085 207.788 C 196.085 208.003,195.605 208.638,195.018 209.199 C 193.924 210.244,193.601 211.384,194.395 211.393 C 194.728 211.397,194.720 211.475,194.365 211.700 C 194.103 211.866,193.915 212.140,193.946 212.308 C 193.978 212.477,193.831 212.673,193.621 212.743 C 193.410 212.814,193.329 212.634,193.440 212.343 C 193.552 212.053,193.512 211.735,193.352 211.636 C 193.192 211.537,193.037 211.841,193.009 212.312 C 192.981 212.782,193.118 213.167,193.314 213.167 C 193.510 213.167,193.584 213.393,193.478 213.668 C 193.357 213.985,193.590 214.246,194.111 214.377 C 194.565 214.491,195.315 214.983,195.778 215.471 C 196.241 215.959,196.899 216.361,197.242 216.364 C 197.585 216.367,197.865 216.540,197.865 216.747 C 197.865 216.954,197.680 217.010,197.454 216.870 C 197.199 216.713,197.140 216.772,197.297 217.027 C 197.437 217.253,197.942 217.438,198.420 217.438 C 198.897 217.438,199.248 217.581,199.199 217.757 C 199.101 218.110,202.250 220.641,202.788 220.641 C 202.974 220.641,203.219 220.881,203.332 221.174 C 203.444 221.468,203.782 221.708,204.081 221.708 C 204.381 221.708,204.626 221.858,204.626 222.040 C 204.626 222.223,204.987 222.485,205.427 222.623 C 205.867 222.762,206.553 223.223,206.950 223.648 C 207.347 224.074,208.227 224.732,208.906 225.111 C 209.585 225.490,210.342 226.041,210.587 226.335 C 210.969 226.791,211.004 226.766,210.828 226.157 L 210.622 225.445 211.064 226.157 C 211.623 227.058,212.154 227.411,212.567 227.155 C 212.745 227.045,213.031 227.176,213.202 227.446 C 213.447 227.833,213.513 227.806,213.518 227.313 C 213.521 226.971,213.703 226.690,213.923 226.690 C 214.216 226.690,214.215 226.561,213.918 226.204 C 213.611 225.834,213.643 225.610,214.053 225.271 C 214.349 225.025,214.591 224.551,214.591 224.218 C 214.591 223.884,214.991 223.235,215.480 222.776 C 215.970 222.316,216.370 221.678,216.370 221.357 C 216.370 221.036,216.851 220.313,217.438 219.751 C 218.025 219.188,218.505 218.457,218.505 218.126 C 218.505 217.796,218.746 217.326,219.039 217.082 C 219.333 216.838,219.573 216.368,219.573 216.037 C 219.573 215.706,220.053 214.975,220.641 214.413 C 221.228 213.850,221.708 213.119,221.708 212.788 C 221.708 212.458,221.948 211.987,222.242 211.744 C 222.536 211.500,222.776 211.030,222.776 210.699 C 222.776 210.368,223.256 209.637,223.843 209.075 C 224.431 208.512,224.911 207.834,224.911 207.568 C 224.911 207.303,225.311 206.685,225.801 206.195 C 226.290 205.706,226.690 205.092,226.690 204.832 C 226.690 204.571,226.931 204.158,227.224 203.915 C 227.518 203.671,227.758 203.201,227.758 202.870 C 227.758 202.539,228.230 201.816,228.807 201.263 C 229.384 200.710,229.905 199.920,229.965 199.506 C 230.072 198.765,231.524 198.554,232.013 199.209 C 232.119 199.352,233.035 199.974,234.049 200.593 C 235.755 201.635,255.474 216.202,255.872 216.715 C 255.970 216.841,257.411 217.967,259.075 219.217 C 260.738 220.467,262.180 221.586,262.278 221.705 C 262.375 221.823,263.016 222.305,263.701 222.776 C 264.386 223.246,265.027 223.728,265.125 223.847 C 265.353 224.124,270.809 228.325,272.730 229.702 C 273.538 230.282,274.520 231.058,274.911 231.426 C 275.302 231.794,276.303 232.569,277.135 233.147 C 277.967 233.725,278.648 234.350,278.648 234.537 C 278.648 234.723,278.888 234.875,279.181 234.875 C 279.475 234.875,279.715 235.127,279.715 235.435 C 279.715 236.099,280.857 235.988,280.994 235.311 C 281.044 235.062,281.004 235.022,280.905 235.222 C 280.649 235.738,280.071 235.676,280.071 235.134 C 280.071 234.884,279.081 233.964,277.871 233.087 C 276.661 232.211,274.779 230.735,273.690 229.807 C 272.600 228.879,271.508 228.119,271.263 228.117 C 271.019 228.115,270.819 227.985,270.819 227.827 C 270.819 227.669,269.818 226.804,268.594 225.906 C 267.371 225.007,265.810 223.778,265.125 223.174 C 264.440 222.570,263.783 222.073,263.667 222.070 C 263.550 222.067,263.069 221.729,262.599 221.319 C 262.129 220.909,260.743 219.837,259.520 218.937 C 258.296 218.037,257.295 217.171,257.295 217.013 C 257.295 216.855,257.069 216.726,256.791 216.726 C 256.514 216.726,256.234 216.586,256.168 216.416 C 256.103 216.245,254.929 215.263,253.559 214.233 C 252.189 213.204,250.988 212.255,250.890 212.125 C 250.792 211.995,249.671 211.100,248.399 210.137 C 247.126 209.173,245.874 208.180,245.615 207.929 C 245.357 207.678,245.027 207.473,244.882 207.473 C 244.737 207.473,244.148 207.024,243.573 206.475 C 242.997 205.926,241.486 204.688,240.214 203.724 C 238.941 202.761,237.268 201.369,236.496 200.632 C 235.724 199.895,234.803 199.200,234.450 199.088 C 234.097 198.976,233.808 198.747,233.808 198.579 C 233.808 198.410,233.528 198.200,233.185 198.110 C 232.592 197.955,232.592 197.945,233.185 197.906 C 233.528 197.883,233.808 197.625,233.808 197.331 C 233.808 196.916,234.282 196.797,235.943 196.797 C 237.129 196.797,238.078 196.639,238.078 196.441 C 238.078 196.246,238.959 196.085,240.036 196.085 C 241.538 196.085,241.993 195.961,241.993 195.552 C 241.993 195.136,242.467 195.018,244.128 195.018 C 245.789 195.018,246.263 194.899,246.263 194.484 C 246.263 194.069,246.738 193.950,248.399 193.950 C 250.059 193.950,250.534 193.832,250.534 193.416 C 250.534 192.993,251.048 192.883,253.025 192.883 C 255.002 192.883,255.516 192.772,255.516 192.349 C 255.516 191.934,255.991 191.815,257.651 191.815 C 259.312 191.815,259.786 191.696,259.786 191.281 C 259.786 190.871,260.241 190.747,261.744 190.747 C 263.246 190.747,263.701 190.623,263.701 190.214 C 263.701 189.810,264.136 189.680,265.480 189.680 C 266.825 189.680,267.260 189.549,267.260 189.146 C 267.260 188.626,267.662 188.462,268.619 188.591 C 269.114 188.658,268.994 186.642,268.474 186.176 C 268.331 186.048,268.320 186.237,268.449 186.596 C 268.606 187.033,268.537 187.199,268.239 187.098 C 267.929 186.994,267.822 186.229,267.889 184.578 C 267.946 183.145,267.840 182.206,267.622 182.206 C 267.423 182.206,267.260 182.037,267.260 181.830 C 267.260 181.622,267.460 181.554,267.705 181.678 C 267.949 181.802,267.869 181.674,267.527 181.393 C 267.130 181.068,266.902 180.380,266.899 179.498 C 266.892 177.545,266.534 176.319,266.148 176.927 C 265.965 177.216,265.845 176.530,265.842 175.178 C 265.837 173.441,265.719 172.954,265.302 172.954 C 265.009 172.954,264.788 172.834,264.811 172.687 C 265.005 171.456,264.671 168.993,264.254 168.575 C 263.970 168.292,263.700 167.325,263.654 166.427 C 263.605 165.473,263.375 164.720,263.101 164.615 C 262.812 164.504,262.633 163.832,262.633 162.852 C 262.633 161.030,262.344 160.060,261.884 160.343 C 261.709 160.452,261.566 159.628,261.566 158.512 C 261.566 157.086,261.401 156.364,261.011 156.078 C 260.658 155.820,260.449 155.093,260.436 154.082 C 260.425 153.207,260.264 152.395,260.077 152.278 C 259.891 152.160,259.702 151.575,259.656 150.976 C 259.610 150.378,259.341 149.603,259.057 149.253 C 258.741 148.864,258.713 148.721,258.986 148.885 C 259.625 149.269,259.534 148.553,258.859 147.877 C 258.544 147.563,258.366 147.001,258.463 146.629 C 258.572 146.214,258.419 145.869,258.067 145.733 C 257.570 145.543,257.563 145.469,258.017 145.182 C 258.403 144.938,258.419 144.849,258.075 144.845 C 257.819 144.842,257.708 144.680,257.829 144.484 C 257.950 144.288,257.945 144.128,257.817 144.128 C 257.689 144.128,257.501 144.448,257.398 144.840 M158.434 157.722 C 157.860 158.297,157.893 158.956,158.496 158.956 C 158.772 158.956,158.986 158.593,158.986 158.126 C 158.986 157.160,158.992 157.165,158.434 157.722 M197.509 169.929 C 197.872 170.366,197.847 170.463,197.375 170.463 C 197.057 170.463,196.797 170.222,196.797 169.929 C 196.797 169.635,196.858 169.395,196.932 169.395 C 197.005 169.395,197.265 169.635,197.509 169.929 M200.164 170.732 C 200.271 171.011,200.272 171.377,200.168 171.547 C 199.864 172.038,199.087 171.573,199.034 170.869 C 198.977 170.109,199.883 169.999,200.164 170.732 M189.898 211.544 C 190.105 212.082,191.103 212.604,191.103 212.174 C 191.103 212.032,190.789 211.719,190.405 211.479 C 189.829 211.119,189.740 211.131,189.898 211.544 " stroke="none" fill="#d43434" fill-rule="evenodd"></path></g></svg>